<?xml version="1.0" encoding="UTF-8"?>
<svg id="Layer_1" data-name="Layer 1" xmlns="http://www.w3.org/2000/svg" version="1.1" xmlns:xlink="http://www.w3.org/1999/xlink" viewBox="0 0 193 192">
  <defs>
    <style>
      .cls-1 {
        filter: url(#drop-shadow-1);
      }

      .cls-2 {
        fill: url(#New_Gradient_Swatch_2);
        stroke: #fff;
        stroke-miterlimit: 10;
        stroke-width: 2px;
      }
    </style>
    <filter id="drop-shadow-1" filterUnits="userSpaceOnUse">
      <feOffset dx="3" dy="3"/>
      <feGaussianBlur result="blur" stdDeviation="2"/>
      <feFlood flood-color="#000" flood-opacity=".8"/>
      <feComposite in2="blur" operator="in"/>
      <feComposite in="SourceGraphic"/>
    </filter>
    <linearGradient id="New_Gradient_Swatch_2" data-name="New Gradient Swatch 2" x1="39.4" y1="20.2" x2="179.5" y2="160.3" gradientUnits="userSpaceOnUse">
      <stop offset="0" stop-color="#cce6f4"/>
      <stop offset="1" stop-color="#053a4c"/>
    </linearGradient>
  </defs>
  <text/>
  <g class="cls-1">
    <path class="cls-2" d="M178.5,107.8h-2c-2.5,13-5.4,23.8-8.9,32.5-1.5-1.7-2.2-3.6-2.3-5.9V53.8c0-2.5,1-4.7,2.8-6.5.2-.2.4-.4.6-.6,2,4.4,3.7,9.3,5.3,14.7h2.2l2.5-47.8c-7-3-16-5.7-26.9-8-10.9-2.3-23.4-3.5-37.4-3.5-23,0-42.7,3.6-59,10.8-16.3,7.2-28.8,17.5-37.5,31.1-8.7,13.6-13,29.9-13,48.9s4.4,36,13.2,49.5c8.8,13.5,21.5,23.8,37.9,30.9,16.4,7.1,35.8,10.7,58.1,10.9,13.2,0,24.4-1.5,33.6-4.4s16.8-6.7,22.8-11.4c5.9-4.7,10.5-9.8,13.9-15.2l-6-45.5ZM87.1,24c8.8-6.2,19.3-9.2,31.6-9.2s24,3.4,33.5,10.1c5.8,4.1,10.7,10.2,14.8,18.3h-42.7v1.5h1.9c2.5,0,4.7.9,6.5,2.7,1.8,1.8,2.8,3.9,2.8,6.5v36.6h-39.1v-36.6c0-2.5,1-4.7,2.8-6.5s3.9-2.7,6.5-2.7h1.9v-1.5h-37.1c4.3-8,9.9-14.4,16.7-19.2ZM66.5,134.4c-4.3-11.8-6.5-25.8-6.5-42.1s2.2-29,6.4-40.1c.1.5.2,1.1.2,1.7v80.5c0,.1,0,.2,0,.3,0,0,0-.2,0-.2ZM146.5,165.8c-8,4-18.8,6-32.2,6-11.3-.3-21-3.7-29.1-10.1-5.5-4.3-10.1-9.9-13.8-16.7h36.3v-1.5h-1.9c-2.5,0-4.7-.9-6.5-2.7-1.8-1.8-2.7-3.9-2.8-6.5v-36.6h39.1v36.6c0,2.5-.9,4.7-2.8,6.5-1.8,1.8-4,2.7-6.5,2.7h-1.9v1.5h41.3c-.1.2-.2.5-.3.7-4.5,9.4-10.8,16.1-18.8,20.1Z"/>
  </g>
</svg>